<?xml version="1.0" standalone="no"?>
<!DOCTYPE svg PUBLIC "-//W3C//DTD SVG 20010904//EN"
 "http://www.w3.org/TR/2001/REC-SVG-20010904/DTD/svg10.dtd">
<svg version="1.0" xmlns="http://www.w3.org/2000/svg"
 width="192.000000pt" height="192.000000pt" viewBox="0 0 192.000000 192.000000"
 preserveAspectRatio="xMidYMid meet">
<metadata>
Created by potrace 1.11, written by Peter Selinger 2001-2013
</metadata>
<g transform="translate(0.000000,192.000000) scale(0.100000,-0.100000)"
fill="#000000" stroke="none">
<path d="M892 1775 c-40 -19 -76 -35 -80 -36 -4 -1 -32 -15 -62 -31 -30 -15
-60 -28 -67 -28 -7 0 -13 -4 -13 -10 0 -5 -5 -10 -11 -10 -5 0 -48 -18 -94
-40 -46 -22 -89 -40 -94 -40 -6 0 -11 -5 -11 -10 0 -6 -3 -9 -7 -8 -10 2 -35
-9 -175 -76 -94 -44 -119 -61 -124 -80 -3 -14 -3 -30 1 -37 8 -12 166 -89 184
-89 6 0 11 -5 11 -10 0 -6 3 -9 8 -8 4 0 15 -2 24 -6 14 -6 15 -13 7 -34 -6
-15 -13 -35 -15 -44 -2 -10 -6 -28 -9 -40 -10 -40 -25 -131 -32 -188 -3 -30
-14 -71 -24 -90 -26 -50 -26 -114 0 -175 18 -42 17 -89 -4 -295 -16 -155 -16
-217 0 -234 18 -18 129 -23 154 -7 16 10 18 76 7 201 -3 36 -8 93 -11 127 -2
34 -7 84 -10 110 -3 33 1 64 14 98 23 61 21 137 -4 185 -21 39 -22 73 -5 154
6 31 11 57 11 58 -1 2 7 26 18 53 11 32 23 49 32 47 8 -2 21 -5 30 -7 9 -2
105 -45 213 -95 209 -97 246 -106 304 -76 18 9 34 17 37 17 2 0 36 15 75 34
38 19 74 35 80 35 5 0 10 5 10 12 0 6 3 8 6 5 4 -3 16 -1 28 5 11 7 24 11 29
10 4 -1 7 2 7 8 0 6 3 9 8 8 4 -1 46 17 95 40 48 23 92 42 97 42 6 0 10 4 10
10 0 5 3 9 8 8 4 -1 18 3 32 9 14 6 29 11 34 11 5 0 12 4 15 9 3 4 35 21 71
38 99 45 128 69 122 101 -4 20 -17 32 -56 49 -28 12 -104 48 -170 79 -65 31
-120 56 -121 56 -2 0 -56 25 -121 56 -144 68 -167 78 -176 76 -5 -1 -8 2 -8 7
0 5 -10 13 -22 17 -13 4 -51 20 -86 35 -34 16 -70 29 -80 28 -9 0 -50 -15 -90
-34z"/>
<path d="M533 1034 c-3 -10 -7 -103 -7 -208 l-1 -191 30 -41 c44 -62 148 -124
250 -150 52 -13 125 -16 297 -10 27 0 48 4 48 7 0 4 18 9 39 12 81 10 187 80
241 157 24 34 25 41 23 180 -1 80 -5 168 -8 197 -8 65 -5 65 -180 -17 -153
-72 -200 -93 -210 -96 -5 -1 -23 -8 -40 -14 -23 -9 -37 -9 -60 1 -16 7 -32 13
-35 14 -14 5 -65 27 -108 47 -26 12 -50 21 -54 20 -5 -1 -8 3 -8 8 0 6 -4 10
-10 10 -9 0 -117 48 -173 76 -25 13 -28 13 -34 -2z"/>
</g>
</svg>
